<svg fill="inherit" height="800px" width="800px" version="1.1" id="logo" xmlns="http://www.w3.org/2000/svg"
	xmlns:xlink="http://www.w3.org/1999/xlink" viewBox="0 0 507.801 507.801" xml:space="preserve">
	<g>
		<g>
			<path
				d="M492.318,189.694c-5.543-40.292-23.218-75.308-48.462-96.078c-3.629-3.005-6.433-8.281-8.326-15.627    c-1.135-4.452-2.07-8.726-2.938-12.8c-4.652-21.348-11.687-53.582-51.445-56.298c-18.877-1.091-34.905,3.228-51.512,9.505    c-6.433-8.615-16.028-14.536-27.937-17.052c-21.793-4.563-50.109,2.694-77.802,18.677l-14.803-8.303    c-2.159-1.247-54.183-29.807-99.818,10.129C97.031,32.532,87.927,47.068,82.807,63.942c-5.432-2.115-11.309-2.849-17.297-1.959    c-11.798,1.647-21.66,9.216-26.379,20.168c-15.182,35.128-57.478,155.27,16.384,253.796l0.022,104.203    c0.022,36.73,29.963,66.627,66.694,66.627h106.34c0.356,0.378,0.801,0.646,1.135,1.024    c-11.264-11.954-18.321-27.893-18.321-45.546v-22.127h-44.522c-12.31,0-22.261-9.951-22.261-22.261s9.951-22.261,22.261-22.261    h66.783h89.043h22.261c12.31,0,22.261,9.951,22.261,22.261s-9.951,22.261-22.261,22.261v22.127    c0,17.386-6.456,32.835-16.896,44.589c0.022-0.022,0.045-0.044,0.067-0.067h61.44c36.775,0,66.694-29.896,66.694-66.649V337.127    C470.88,318.94,503.248,268.675,492.318,189.694z M227.124,335.347c8.704,8.704,8.704,22.773,0,31.477    c-4.341,4.341-10.04,6.522-15.738,6.522s-11.398-2.182-15.738-6.522l-28.783-28.783l-28.783,28.783    c-4.341,4.341-10.04,6.522-15.738,6.522c-5.699,0-11.398-2.182-15.738-6.522c-8.704-8.704-8.704-22.773,0-31.477l28.783-28.783    l-28.783-28.783c-8.704-8.704-8.704-22.773,0-31.477c8.704-8.704,22.773-8.704,31.477,0l28.783,28.783l28.783-28.783    c8.704-8.704,22.773-8.704,31.477,0c8.704,8.704,8.704,22.773,0,31.477l-28.783,28.783L227.124,335.347z M405.211,366.824    c-4.341,4.341-10.04,6.522-15.738,6.522s-11.398-2.182-15.738-6.522l-28.783-28.783l-28.783,28.783    c-4.341,4.341-10.04,6.522-15.738,6.522c-5.699,0-11.398-2.182-15.738-6.522c-8.704-8.704-8.704-22.773,0-31.477l28.783-28.783    L284.69,277.78c-8.704-8.704-8.704-22.773,0-31.477c8.704-8.704,22.773-8.704,31.477,0l28.783,28.783l28.783-28.783    c8.704-8.704,22.773-8.704,31.477,0c8.704,8.704,8.704,22.773,0,31.477l-28.783,28.783l28.784,28.784    C413.915,344.051,413.915,358.12,405.211,366.824z M422.708,173.532c-18.81,11.064-34.616,14.648-46.948,10.841    c-3.517-1.113-6.567-2.783-9.172-4.675c-0.044-0.044-0.089-0.067-0.134-0.089c-2.605-1.914-4.786-4.074-6.522-6.099    c-3.473-4.051-5.209-7.591-5.387-7.947l-4.808-11.108l-12.154-1.87c-76.822-11.798-110.058,9.572-124.082,27.091    c-52.692-7.413-77.98-24.643-78.113-24.732l-16.562-11.976l-13.357,15.516c-15.338,17.809-27.581,30.943-41.16,41.361l-7.19,5.476    c-0.2-36.864,9.327-70.478,17.853-93.073c6.79,3.117,14.47,4.029,22.194,2.093c12.733-3.072,22.439-12.934,25.266-25.622    c0.69-3.139,1.469-6.3,2.271-9.372c1.825-6.99,5.699-16.852,13.869-23.975c8.949-7.836,18.521-10.195,26.78-10.195h0.111    c-1.158,7.391-1.269,16.228,0.2,26.802c1.425,9.884,8.192,17.965,17.675,21.059c9.594,3.161,19.901,0.646,26.869-6.522    c37.866-38.4,77.334-45.568,83.523-41.873c3.027,8.147,9.127,14.581,17.185,18.143c8.281,3.651,17.809,3.829,26.312,0.423    c15.85-6.344,28.138-10.908,40.893-9.884c5.788,0.401,6.389,0.445,10.93,21.326c1.002,4.608,2.07,9.439,3.384,14.447    c4.296,16.673,12.088,29.741,23.129,38.89c5.476,4.497,16.317,15.338,24.353,35.439L422.708,173.532z" />
		</g>
	</g>
	<g>
		<g>
			<path
				d="M255.907,440.131v22.127h0c0,13.935,11.553,22.261,22.706,22.261c12.422,0,21.816-9.572,21.816-22.261v-22.127H255.907z" />
		</g>
	</g>
</svg>